<svg width="375" height="179" viewBox="0 0 375 179" fill="none" xmlns="http://www.w3.org/2000/svg">
<g clip-path="url(#clip0_3_465)">
<mask id="path-1-inside-1_3_465" fill="white">
<path d="M0 0H375V179H0V0Z"/>
</mask>
<path d="M0 0H375V179H0V0Z" fill="#FEE7E7"/>
<ellipse cx="3.5" cy="4.5" rx="18.5" ry="15.5" fill="#FF8F8F"/>
<ellipse cx="82.5" cy="161" rx="35.5" ry="31" fill="#F75050"/>
<ellipse cx="138" cy="97.5" rx="36" ry="23.5" fill="#FFCDCD"/>
<path d="M225.5 7.5C225.5 16.8888 216.322 24.5 205 24.5C193.678 24.5 184.5 16.8888 184.5 7.5C184.5 -1.88884 193.678 -9.5 205 -9.5C216.322 -9.5 225.5 -1.88884 225.5 7.5Z" fill="#FFB5B5"/>
<ellipse cx="199" cy="184.5" rx="57" ry="39.5" fill="#FF6D6D"/>
<path d="M272.86 85.6718C275.937 79.6646 276.84 72.7713 275.419 66.1361C273.997 59.5008 270.336 53.5226 265.044 49.1937C259.752 44.8648 253.147 42.4455 246.325 42.3374C239.502 42.2293 232.874 44.4389 227.538 48.5994C222.203 52.76 218.483 58.6212 216.994 65.2104C215.505 71.7995 216.338 78.7203 219.354 84.824C222.371 90.9277 227.389 95.8473 233.576 98.7662C239.763 101.685 246.747 102.428 253.369 100.871L246.174 72L272.86 85.6718Z" fill="#FE7575"/>
<path d="M155 26.5C155 38.3741 146.046 48 135 48C123.954 48 115.5 41.3741 115.5 29.5C115.5 17.6259 123.954 5 135 5C146.046 5 155 14.6259 155 26.5Z" fill="#FF9797"/>
<ellipse cx="72.5" cy="16.5" rx="18.5" ry="15.5" fill="#FFBDBD"/>
</g>
<path d="M375 179V178H0V179V180H375V179Z" fill="black" mask="url(#path-1-inside-1_3_465)"/>
<defs>
<clipPath id="clip0_3_465">
<path d="M0 0H375V179H0V0Z" fill="white"/>
</clipPath>
</defs>
</svg>
