<svg width="375" height="259" viewBox="0 0 375 259" fill="none" xmlns="http://www.w3.org/2000/svg">
<g clip-path="url(#clip0_36_6)">
<mask id="path-1-inside-1_36_6" fill="white">
<path d="M0 0H375V259H0V0Z"/>
</mask>
<path d="M0 0H375V259H0V0Z" fill="#EAEEFF"/>
<path d="M390.901 38.0637C365.036 90.122 390.901 75.622 316.588 43.622C295.844 36.0236 286.629 17.2541 293.088 -0.377954C299.547 -18.01 344.293 -15.2183 365.036 -7.61991C385.78 -0.0215434 397.36 20.4317 390.901 38.0637Z" fill="#E7FFCB"/>
<path d="M390.901 38.0637C365.036 90.122 390.901 75.622 316.588 43.622C295.844 36.0236 286.629 17.2541 293.088 -0.377954C299.547 -18.01 344.293 -15.2183 365.036 -7.61991C385.78 -0.0215434 397.36 20.4317 390.901 38.0637Z" fill="black" fill-opacity="0.2"/>
<path d="M82.3961 18.622C82.3961 37.3997 35.5879 53.122 10.3961 59.122C-7.82929 59.122 -20.9121 37.3997 -20.9121 18.622C-20.9121 -0.155642 -6.13751 -15.378 12.0879 -15.378C30.3133 -15.378 140.896 -45.378 82.3961 18.622Z" fill="#9DE5FF"/>
<path d="M82.3961 18.622C82.3961 37.3997 35.5879 53.122 10.3961 59.122C-7.82929 59.122 -20.9121 37.3997 -20.9121 18.622C-20.9121 -0.155642 -6.13751 -15.378 12.0879 -15.378C30.3133 -15.378 140.896 -45.378 82.3961 18.622Z" fill="black" fill-opacity="0.2"/>
<path d="M344.123 200.846C376.088 274.574 337.588 284.574 263.588 259.574C170.088 265.574 223.933 276.452 213.375 245.623C308.088 229.574 118.483 128.939 154.588 116.574C190.693 104.209 314.588 20.0741 344.123 200.846Z" fill="#FFB7BC"/>
<path d="M344.123 200.846C376.088 274.574 337.588 284.574 263.588 259.574C170.088 265.574 223.933 276.452 213.375 245.623C308.088 229.574 118.483 128.939 154.588 116.574C190.693 104.209 314.588 20.0741 344.123 200.846Z" fill="black" fill-opacity="0.2"/>
<path d="M143.448 260.122C143.448 278.9 110.093 294.122 68.948 294.122C27.8027 294.122 -5.55202 278.9 -5.55202 260.122C92.5879 231.622 -54.6973 106.622 -13.5521 106.622C27.5931 106.622 143.448 241.344 143.448 260.122Z" fill="#FF9DFD"/>
<path d="M143.448 260.122C143.448 278.9 110.093 294.122 68.948 294.122C27.8027 294.122 -5.55202 278.9 -5.55202 260.122C92.5879 231.622 -54.6973 106.622 -13.5521 106.622C27.5931 106.622 143.448 241.344 143.448 260.122Z" fill="black" fill-opacity="0.2"/>
<path d="M143.448 260.122C143.448 278.9 110.093 294.122 68.948 294.122C27.8027 294.122 -5.55202 278.9 -5.55202 260.122C92.5879 231.622 -54.6973 106.622 -13.5521 106.622C27.5931 106.622 143.448 241.344 143.448 260.122Z" fill="black" fill-opacity="0.2"/>
</g>
<path d="M375 259V258H0V259V260H375V259Z" fill="black" mask="url(#path-1-inside-1_36_6)"/>
<defs>
<clipPath id="clip0_36_6">
<path d="M0 0H375V259H0V0Z" fill="white"/>
</clipPath>
</defs>
</svg>
