<svg width="275" height="46" viewBox="0 0 275 46" fill="none" xmlns="http://www.w3.org/2000/svg">
<rect x="0.5" y="0.499985" width="188.527" height="25.1364" rx="4.5" fill="#FFD9D9" stroke="black"/>
<rect x="50.6689" y="22.4545" width="223.831" height="23.0455" rx="4.5" fill="#FFD9D9" stroke="black"/>
<path d="M187.036 21.747C187.148 21.8733 187.206 22.254 187.206 22.2272C187.206 21.8848 187.206 20.8747 187.206 21.0804C187.206 21.286 187.206 22.738 187.29 23.3913C187.374 24.0446 187.543 23.8552 187.629 23.2526C187.716 22.65 187.716 21.6399 187.716 21.5299C187.716 21.4199 187.716 22.2406 187.576 22.7581C187.435 23.2755 187.155 23.4649 186.758 23.4678C184.414 23.4847 182.167 23.2124 181.23 23.2143C180.271 23.2163 183.347 22.2597 184.595 21.7174C185.152 21.4754 185.673 21.1731 186.295 21.2994C186.597 21.3607 186.805 21.6782 186.864 21.9661C186.924 22.254 186.812 22.5696 186.614 22.7954C185.595 23.956 183.752 23.1512 183.383 22.8336C183.24 22.6423 183.184 22.3898 183.267 22.1966C183.35 22.0034 183.575 21.8771 184.316 21.747" stroke="#FFD9D9" stroke-width="2" stroke-linecap="round"/>
<path d="M183.296 21.9384C182.453 22.0646 178.954 22.321 174.698 21.7824C172.629 21.5206 170.614 20.3467 169.138 19.9326C168.313 19.7009 171.668 20.0253 173.228 20.2147C173.694 20.2713 173.385 20.7829 173.016 21.0096C171.231 22.1066 168.741 21.617 167.884 21.7155C166.82 21.8379 171.889 22.5697 173.16 22.8949C169.244 22.8949 165.791 22.7686 164.465 22.5773C163.644 22.5123 162.522 22.5123 161.366 22.5123" stroke="#FFD9D9" stroke-width="2" stroke-linecap="round"/>
<path d="M172.416 21.7471C174.048 21.4276 176.719 21.8083 177.061 22.2856C177.011 22.5103 176.506 22.6997 175.601 22.7973C174.696 22.8949 173.406 22.8949 172.076 22.8949" stroke="#FFD9D9" stroke-width="2" stroke-linecap="round"/>
<path d="M162.046 22.8949C161.036 23.1474 159.899 23.5931 157.028 24.1029C154.796 24.4994 150.904 24.3602 148.742 24.2981C145.52 24.2054 143.417 23.3425 141.989 22.8652C141.463 22.6895 141.137 22.1316 141.023 21.7815C141.076 21.6208 141.357 21.4945 141.838 21.4295C142.319 21.3644 142.992 21.3644 143.686 21.3644" stroke="#FFD9D9" stroke-width="2" stroke-linecap="round"/>
<path d="M144.876 23.8514C145.778 23.8514 147.024 23.7251 149.091 23.6601C149.985 23.6319 146.637 22.5161 146.066 21.8131C145.959 21.6817 146.623 21.6208 146.967 21.683C147.31 21.7451 147.535 21.9345 147.426 22.0952C147.054 22.6441 145.62 22.5123 144.627 22.4491C143.498 22.3774 147.194 22.3822 148.385 23.0202C149.293 23.5074 150.703 23.7213 152.992 24.0102C156.871 24.4996 159.776 23.8533 160.257 23.4401C160.482 23.2472 160.57 22.9637 160.6 22.6758C160.63 22.3879 160.574 22.0723 160.405 21.8781C159.396 20.7204 157.065 21.9345 155.253 22.1928C154.851 22.2501 154.627 22.3822 155.465 22.4788C156.303 22.5754 158.211 22.6385 158.604 22.671C157.82 22.7036 156.045 22.5142 154.746 22.2272C154.008 22.1297 153.111 22.1297 152.186 22.1297" stroke="#FFD9D9" stroke-width="2" stroke-linecap="round"/>
<path d="M157.456 22.8949C157.456 22.7686 157.456 22.6423 157.596 22.5457C157.736 22.4491 158.017 22.386 158.75 22.3535C159.484 22.321 160.662 22.321 161.876 22.321" stroke="#FFD9D9" stroke-width="2" stroke-linecap="round"/>
<path d="M149.636 22.7036H154.736" stroke="#FFD9D9" stroke-width="2" stroke-linecap="round"/>
<path d="M146.916 21.5558C148.206 21.9345 149.496 22.3133 150.357 22.54C151.218 22.7667 151.611 22.8298 152.016 22.8949" stroke="#FFD9D9" stroke-width="2" stroke-linecap="round"/>
<path d="M142.155 23.8514C140.911 23.8514 139.221 23.5988 138.048 22.9293C137.919 22.8556 138.409 22.6423 138.947 22.5773C140.208 22.4248 137.543 22.7016 133.705 22.9886C133.28 23.0203 135.981 23.0862 137.256 23.1493C135.439 23.4688 129.861 23.595 129.184 23.7863C128.732 23.8514 128.059 23.8514 127.365 23.6601" stroke="#FFD9D9" stroke-width="2" stroke-linecap="round"/>
<path d="M129.405 22.5123C130.64 22.2597 135.876 22.0665 139.508 21.9709C140.476 21.9454 131.864 21.9384 128.228 22.0015C124.197 22.0715 121.383 22.321 117.616 22.3525C114.344 22.3799 110.712 22.7648 109.265 22.9264C108.951 22.9615 108.726 23.0211 106.17 23.0536C103.614 23.0862 98.7336 23.0862 97.0608 23.0862C99.0855 22.9599 100.216 22.5773 103.127 21.8771C103.954 21.7471 104.684 21.7471 105.435 21.7471" stroke="#FFD9D9" stroke-width="2" stroke-linecap="round"/>
<path d="M99.485 21.9384C95.0683 23.2756 93.7117 23.6601 91.2781 23.9776C90.6515 24.0594 90.1451 24.0427 90.2496 23.8533C91.4521 21.6751 94.6552 22.4511 98.125 22.0053C103.308 21.3395 106.736 21.4926 107.329 21.397C108.821 21.1564 110.08 20.9819 110.251 21.1397C111.464 22.2547 107.142 22.5123 104.237 22.8298C99.3445 23.3645 95.7483 22.958 94.4249 23.0537C88.509 23.4812 84.6438 21.7471 83.906 21.7155C83.8094 21.7114 84.9702 21.5558 85.9919 21.6189C87.3028 21.6999 82.4355 22.5123 81.5829 22.5123C79.4351 22.5123 86.6736 21.7471 88.9891 21.4295C89.9513 21.3645 91.2977 21.3645 92.1035 21.3329C92.9093 21.3013 93.1337 21.2382 93.5349 21.1732" stroke="#FFD9D9" stroke-width="2" stroke-linecap="round"/>
<path d="M81.9748 22.3209C80.3479 22.5123 76.5959 22.7648 73.9362 22.8633C73.7117 22.8716 75.0013 22.7036 75.3149 22.7036C76.4171 22.7036 72.8032 22.1966 69.761 21.6237C67.5788 21.2127 64.026 21.177 61.504 21.111C54.7784 20.935 51.7178 22.3209 51.4041 22.3841C49.0887 22.8501 57.3755 22.8298 58.3411 22.958C59.6222 23.128 61.1733 23.7213 64.3949 23.8198C66.1103 23.8723 67.2356 23.5338 68.2012 23.1196C69.0825 22.7416 70.1256 22.451 71.1754 21.8446C71.807 21.4797 72.6213 21.8102 73.1032 22.0321C73.2907 22.1184 73.1925 22.4434 73.0514 22.605C72.7595 22.9394 69.7618 22.8949 65.4854 22.8633C62.824 22.7036 62.0301 22.5773 61.4096 22.386C61.0135 22.3209 60.4525 22.3209 59.8745 22.3209" stroke="#FFD9D9" stroke-width="2" stroke-linecap="round"/>
<path d="M51.0344 22.7035C50.9222 23.0823 51.201 23.8456 51.7951 24.8012C52.0527 25.1886 52.221 25.3779 52.4199 25.5071C52.6188 25.6362 52.8432 25.6993 53.2444 25.7644" stroke="#FFD9D9" stroke-width="2" stroke-linecap="round"/>
<path d="M53.2445 24.234C53.0201 24.1077 52.7956 23.9815 52.5398 23.8849C52.2839 23.7883 52.0034 23.7251 51.8309 23.5348C51.6583 23.3444 51.6022 23.0288 51.5444 22.7036" stroke="#FFD9D9" stroke-width="2" stroke-linecap="round"/>
<path d="M52.2245 27.4861C52.2245 25.8964 52.1123 24.3679 51.7443 23.2813C51.6584 23.0249 51.6023 22.7724 51.4051 22.6423C51.2079 22.5123 50.8713 22.5123 50.3545 22.8949" stroke="#FFD9D9" stroke-width="2" stroke-linecap="round"/>
<path d="M52.5646 27.4861C52.5646 27.423 52.5646 27.3598 52.4524 26.9801C52.3402 26.6004 52.1158 25.9059 52.0283 25.0747C51.9407 24.2435 51.9968 23.2966 52.0546 22.321" stroke="#FFD9D9" stroke-width="2" stroke-linecap="round"/>
<path d="M50.0146 21.9384C50.1268 21.9384 50.5213 21.9384 51.1154 22.0331C51.373 22.1277 51.5413 22.3171 51.7402 22.4778C51.9391 22.6385 52.1635 22.7648 52.7347 22.8949" stroke="#FFD9D9" stroke-width="2" stroke-linecap="round"/>
<path d="M50.6946 23.6601H52.2246" stroke="#FFD9D9" stroke-width="2" stroke-linecap="round"/>
</svg>
