<svg width="213" height="47" viewBox="0 0 213 47" fill="none" xmlns="http://www.w3.org/2000/svg">
<rect x="198.278" y="-1" width="4" height="26.4625" transform="rotate(5.94203 198.278 -1)" fill="#9A623D"/>
<rect x="17.7395" y="-9" width="4" height="26.4625" transform="rotate(5.94203 17.7395 -9)" fill="#9A623D"/>
<path d="M2.76001 9.71381L211.006 21.577L209.672 44.9905L1.42621 33.1273L2.76001 9.71381Z" fill="#EA8E52"/>
<path d="M15.8106 11.9468C19.4606 12.1653 23.984 12.3554 27.5934 12.6026C27.644 12.6061 27.6946 12.6095 27.7452 12.613C29.2204 12.714 30.7231 12.8241 32.5412 12.9574C32.7728 12.9743 33.0101 12.9918 33.2525 13.0096C35.4077 13.1674 38.0553 13.3602 41.6636 13.6124C53.7799 14.4594 63.346 14.9002 66.3216 15.0372C72.2893 15.3121 78.6516 15.6732 87.3328 16.1659C88.1267 16.211 88.9402 16.2574 89.7744 16.3047C90.4502 16.343 91.0067 16.4274 91.0185 16.4934C91.0299 16.5595 90.4918 16.582 89.8157 16.5436C88.9989 16.4973 88.2029 16.4522 87.4272 16.4082C87.4236 16.408 87.4201 16.4078 87.4166 16.4076C78.6808 15.9118 72.4568 15.5586 66.6297 15.2902C63.5893 15.1501 53.7883 14.6982 41.373 13.8304C37.7262 13.5755 35.0489 13.3808 32.8806 13.222C32.6432 13.2047 32.4119 13.1876 32.187 13.1712C32.1817 13.1708 32.1764 13.1704 32.1711 13.17C30.3411 13.0359 28.9016 12.9302 27.4898 12.8336C27.4598 12.8316 27.4298 12.8296 27.3998 12.8276C23.7497 12.5776 19.3126 12.3931 15.7725 12.1812C15.0967 12.1407 14.5568 12.0554 14.5675 11.9906C14.5784 11.926 15.1352 11.9064 15.8106 11.9468ZM181.729 42.6859C178.199 42.5715 173.511 42.2949 169.373 42.0205C165.206 41.7443 161.436 41.4596 159.663 41.3157C157.929 41.175 156.001 41.0516 153.7 40.9122C153.173 40.8802 152.626 40.8474 152.06 40.8134C150.19 40.7013 148.11 40.5765 145.827 40.4277C137.441 39.8813 131.971 39.5669 128.065 39.3505C127.261 39.306 126.514 39.2652 125.814 39.227C125.813 39.2269 125.812 39.2268 125.81 39.2268C123.169 39.0824 121.198 38.9747 119.388 38.8446C116.165 38.613 113.533 38.4206 110.359 38.1567C105.982 37.7928 99.7369 37.4506 95.669 37.2976C95.4457 37.2892 95.2174 37.2808 94.9863 37.2722C92.0373 37.1616 88.4062 37.0255 82.9645 36.7682C78.4432 36.5544 74.5053 36.3266 71.0202 36.1158C70.0215 36.0553 69.0685 35.9966 68.1536 35.9405C65.8444 35.7988 63.7775 35.6719 61.8298 35.5662C49.751 34.9112 42.7888 34.4718 38.4151 34.1583C35.0514 33.9171 33.1743 33.7465 31.8203 33.6233C31.4111 33.5861 31.0497 33.553 30.7094 33.5239C27.6744 33.2638 24.8855 33.0657 21.5308 32.8274C20.7863 32.7745 20.0117 32.7195 19.2025 32.6615C16.4959 32.4677 14.4768 32.3595 12.8929 32.286C12.2001 32.2539 11.5903 32.2282 11.0153 32.2042C11.0047 32.2038 10.994 32.2033 10.9834 32.2029C10.9032 32.1996 10.8237 32.1962 10.7447 32.1928C10.6852 32.1903 10.6257 32.1881 10.5661 32.1856C10.5427 32.1854 10.5216 32.185 10.5059 32.1848C10.4935 32.1846 10.4838 32.1844 10.4776 32.1843C10.4764 32.1844 10.4752 32.1844 10.474 32.1844C10.361 32.1825 10.2639 32.1788 10.244 32.178C10.2092 32.1767 10.1784 32.1752 10.1627 32.1746C10.0794 32.1709 9.97228 32.1654 9.90107 32.1617C9.71801 32.1521 9.39988 32.135 8.90803 32.108C8.47972 32.0871 8.06851 32.0694 7.55384 32.0475C7.5214 32.0462 7.48898 32.0448 7.45659 32.0434C6.95462 32.0221 6.36723 31.9969 5.63027 31.963C4.95978 31.9322 4.34611 31.8507 4.25996 31.7808C4.17411 31.711 4.64811 31.6794 5.31857 31.7102C6.01291 31.7421 6.56305 31.7655 7.06532 31.7869C7.09717 31.7882 7.12897 31.7896 7.16079 31.7909C7.68446 31.8132 8.1805 31.8344 8.71476 31.8607C8.89361 31.8696 9.07802 31.879 9.25024 31.888C9.56039 31.9028 9.91336 31.9179 10.3358 31.9356C10.4206 31.9391 10.5081 31.943 10.5975 31.9467C11.1714 31.9707 11.8399 31.9986 12.5935 32.0336C14.3576 32.1154 16.5917 32.2357 19.5373 32.4466C20.3097 32.502 21.0586 32.5551 21.7897 32.607C25.1577 32.8462 28.1543 33.0588 31.3759 33.3349C31.818 33.3728 32.2418 33.4114 32.695 33.4526C34.0382 33.5747 35.642 33.7206 38.7517 33.9435C42.9182 34.2422 49.7147 34.6724 61.7248 35.3237C63.7693 35.4346 65.9738 35.57 68.3225 35.7141C69.219 35.7691 70.1381 35.8253 71.0761 35.8821C74.5069 36.0897 78.3209 36.3102 82.6864 36.5166C88.0065 36.7682 91.5386 36.9008 94.4748 37.0108C94.5762 37.0146 94.6776 37.0183 94.779 37.022C94.9049 37.0267 95.03 37.0314 95.1539 37.0361C99.4887 37.1991 106.134 37.561 110.969 37.963C114.004 38.2153 116.523 38.3997 119.728 38.63C121.304 38.7432 122.99 38.8354 125.578 38.977C126.305 39.0167 127.104 39.0606 127.99 39.1097C131.967 39.3299 137.519 39.649 145.999 40.2016C148.21 40.3456 150.2 40.465 152.059 40.5765C152.636 40.6111 153.203 40.6452 153.758 40.6789C156.07 40.819 158.222 40.9552 160.225 41.1179C161.872 41.2516 165.52 41.5276 169.573 41.7963C173.655 42.0669 177.991 42.3196 181.094 42.4202C181.416 42.4306 181.742 42.4413 182.067 42.452C184.866 42.5435 187.719 42.6368 190.021 42.6527C195.154 42.5853 202.335 42.8815 209.769 43.2879L207.97 44.8935C208.381 37.3748 208.904 29.598 209.278 23.4206C209.288 23.2593 209.298 23.098 209.307 22.9366C209.337 22.4482 209.366 21.9643 209.395 21.4852L210.914 23.1878C197.484 22.3779 187.757 21.8298 184.365 21.6387C184.201 21.6295 184.052 21.6211 183.918 21.6135C183.798 21.6068 183.69 21.6008 183.594 21.5954C182.163 21.5145 180.896 21.4507 179.569 21.3839C179.496 21.3802 179.424 21.3766 179.351 21.3729C177.949 21.3023 176.477 21.2275 174.738 21.1276C168.271 20.7562 162.998 20.4667 158.436 20.2182C157.591 20.1722 156.77 20.1273 155.969 20.0838C155.967 20.0837 155.964 20.0835 155.962 20.0834C152.448 19.8924 149.331 19.7231 146.373 19.5547C140.98 19.2475 137.336 19.0549 134.501 18.9096C133.612 18.864 132.793 18.8225 132.02 18.7834C130.348 18.6988 128.888 18.625 127.383 18.5426C124.552 18.3874 121.945 18.2552 119.378 18.1247C119.149 18.1131 118.921 18.1014 118.692 18.0898C115.909 17.9483 113.153 17.8071 110.24 17.6415C109.564 17.6031 109.007 17.5182 108.996 17.4522C108.986 17.3863 109.527 17.3641 110.203 17.4025C113.032 17.5633 115.72 17.7012 118.502 17.8427C118.732 17.8543 118.962 17.8659 119.193 17.8777C121.754 18.0078 124.408 18.1428 127.292 18.3008C128.744 18.3803 130.123 18.4501 131.761 18.5329C132.543 18.5725 133.385 18.615 134.322 18.6631C137.2 18.8106 140.892 19.0056 146.337 19.3157C149.259 19.4821 152.337 19.6494 155.848 19.8403C156.654 19.8841 157.483 19.9292 158.338 19.9757C162.911 20.2248 168.211 20.516 174.714 20.8894C176.357 20.9837 177.753 21.0548 179.149 21.1251C179.228 21.1291 179.306 21.1331 179.384 21.1371C180.7 21.2033 182.038 21.2705 183.549 21.356C183.751 21.3674 184.009 21.3821 184.32 21.3995C187.714 21.5908 197.466 22.1401 210.928 22.9519L209.631 21.4986C209.601 21.9911 209.571 22.4885 209.541 22.9907C209.538 23.0349 209.535 23.079 209.533 23.1232C208.956 32.6592 208.63 38.039 208.458 42.0939C208.414 43.1118 208.372 44.0478 208.331 44.9141L209.749 43.6498C207.891 43.5625 206.354 43.4816 205.016 43.4093C204.642 43.389 204.288 43.3699 203.951 43.3515C202.493 43.272 201.341 43.2091 200.188 43.1599C196.702 43.011 194.2 42.9497 191.169 42.9288C188.6 42.911 185.457 42.8081 182.704 42.7178C182.7 42.7177 182.696 42.7176 182.692 42.7174C182.365 42.7067 182.043 42.6961 181.729 42.6859ZM2.98651 27.62C3.02695 26.9444 3.11208 26.4051 3.1768 26.4149C3.24154 26.4256 3.26135 26.9822 3.22092 27.6581C3.12451 29.2685 3.02811 30.8788 2.9317 32.4892C2.91549 32.76 2.89209 33.0089 2.86571 33.2093L1.50821 31.6878C1.80775 31.7273 1.99896 31.7734 1.99305 31.8121C1.98685 31.8501 1.79297 31.8726 1.49746 31.8766L2.67698 33.1986C2.67416 32.99 2.68058 32.7307 2.6973 32.451C2.7937 30.8407 2.89011 29.2303 2.98651 27.62ZM184.482 44.0204C183.822 43.996 183.167 43.9173 183.021 43.845C182.875 43.7727 183.293 43.734 183.953 43.7583C184.302 43.7712 184.875 43.7912 185.647 43.8181C189.589 43.9554 198.716 44.2732 209.686 44.7513L209.433 44.9769C209.629 40.4741 209.852 35.6608 210.101 30.768C210.173 29.352 210.237 28.0834 210.298 26.8746C210.388 25.0719 210.456 23.3921 210.529 21.5498L210.979 22.054C207.537 21.9168 203.529 21.7582 197.091 21.387C155.528 18.9906 114.014 16.3252 72.5054 14.1666C60.5169 13.5432 48.569 12.8715 36.5749 12.1843C26.5779 11.6114 8.25993 10.4466 3.94889 10.1885C3.27282 10.1481 2.73327 10.0627 2.74389 9.99796C2.75482 9.93327 3.31129 9.91371 3.98706 9.95414C8.26764 10.2103 26.5247 11.3716 36.4841 11.9422C48.4551 12.6281 60.3787 13.2986 72.344 13.9209C113.901 16.0819 155.565 18.469 197.175 20.8682C203.652 21.2416 207.585 21.5195 210.997 21.7396L210.843 21.5677C210.731 23.3123 210.633 24.9208 210.546 26.6636C210.485 27.8753 210.421 29.1509 210.348 30.58C210.096 35.5498 209.87 40.4346 209.672 44.9905C199.031 44.5282 190.185 44.2199 186.245 44.0826C185.449 44.0549 184.851 44.034 184.482 44.0204ZM153.046 42.1307C145.497 41.7186 134.77 41.0756 125.395 40.5135C120.823 40.2394 116.573 39.9843 113.17 39.785C107.897 39.4761 104.581 39.2306 101.292 38.987C101.257 38.9844 101.222 38.9818 101.186 38.9792C97.8999 38.7358 94.6106 38.4931 89.2558 38.1794C83.857 37.863 76.3835 37.4758 68.8452 37.0852C68.8394 37.0849 68.8334 37.0845 68.8276 37.0842C61.3294 36.6957 53.7169 36.421 48.2229 36.0988C29.0773 34.9764 17.2803 34.1417 11.3179 33.6744C8.13119 33.4247 4.81111 33.2115 1.43286 33.0106L1.54294 33.134C1.99963 25.4558 2.3933 17.4771 3.01081 10.0799C3.14017 8.90693 3.20659 10.9016 3.03139 13.0676C3.02547 13.1458 3.01956 13.2241 3.01364 13.3023C2.95762 14.0475 2.90944 14.6996 2.84816 15.6183C2.76499 16.9498 2.70804 17.9409 2.65615 18.8455C2.57381 20.2808 2.18232 26.873 1.78477 33.1478L1.44664 32.7688C5.54786 33.0286 9.51356 33.291 11.8151 33.4714C17.4737 33.9149 29.0392 34.4504 48.3074 35.58C53.6997 35.8962 61.1436 36.4487 68.682 36.8393C68.7026 36.8404 68.7232 36.8415 68.7438 36.8425C76.227 37.2303 83.7732 37.6213 89.2622 37.9429C94.8106 38.268 98.2498 38.5219 101.579 38.7685C101.612 38.7709 101.644 38.7734 101.676 38.7758C104.935 39.0171 108.098 39.2513 113.176 39.5487C116.654 39.7525 120.954 40.0101 125.555 40.286C134.89 40.8457 145.468 41.4801 152.952 41.8887C153.627 41.9257 154.196 42.0098 154.223 42.0767C154.248 42.1434 153.721 42.1675 153.046 42.1307ZM152.807 43.5917C131.584 42.645 110.261 41.3567 89.364 39.8891C83.9061 39.5694 76.2901 39.1171 68.6843 38.6653C68.5984 38.6601 68.5124 38.6549 68.4264 38.6497C60.903 38.2028 53.4126 37.7579 48.0347 37.4426C28.8893 36.3201 17.0412 35.6024 11.0787 35.1351C5.5192 34.6994 3.97405 34.611 1.68334 34.4797C1.62094 34.4761 1.55852 34.4724 1.4961 34.4688C1.49197 34.4687 1.48784 34.4687 1.48371 34.4686C1.43174 34.4677 1.38529 34.4665 1.34998 34.4654L0.0228722 34.4013L0.0881184 33.0511C0.0886582 33.0329 0.0891565 33.0176 0.0895572 33.0061C0.0919613 32.9368 0.0945997 32.8804 0.0955844 32.8593C0.0978597 32.8105 0.100154 32.7696 0.100941 32.755C0.104159 32.6956 0.108079 32.6275 0.110703 32.5837C0.135111 32.1759 0.215029 30.8987 0.28241 29.887C0.351461 28.8503 0.406412 28.1116 0.464966 27.3328C0.470915 27.2539 0.476864 27.1751 0.482814 27.0963C0.53566 26.3943 0.593152 25.6304 0.671017 24.5299C0.718477 23.8595 0.805363 23.3861 0.865167 23.4722C0.924896 23.5589 0.934888 24.1717 0.887497 24.8418C0.805578 25.9995 0.7444 26.8123 0.691309 27.5176C0.685393 27.5958 0.679478 27.674 0.673562 27.7523C0.617518 28.4977 0.569289 29.1509 0.507981 30.07C0.431841 31.289 0.377725 32.2218 0.329304 33.0649L0.275818 34.1717L1.36372 34.2242C1.44131 34.2287 1.51814 34.2331 1.59434 34.2375C3.96583 34.3735 5.75159 34.476 11.5741 34.9323C17.2326 35.3758 28.772 36.0766 48.041 37.2063C53.429 37.5222 60.9281 37.9676 68.4452 38.4142C68.5335 38.4194 68.6218 38.4247 68.7101 38.4299C76.3201 38.882 83.925 39.3339 89.3704 39.6529C110.595 40.8965 131.39 41.9627 152.711 43.3496C156.637 43.564 160.224 43.7647 163.548 43.9507C173.331 44.4981 180.838 44.9181 188.003 45.1825C189.574 45.2404 193.688 45.448 199.633 45.7534C201.375 45.8429 203.286 45.9415 205.352 46.0479C206.702 46.1176 208.119 46.1906 209.599 46.2668L210.887 46.3291L210.948 45.0632C211.158 40.9937 211.392 36.4463 211.644 31.4904C211.716 30.0743 211.779 28.8057 211.84 27.597C211.941 25.5824 212.034 23.7333 212.143 21.6417L212.199 20.4942L211.071 20.4397C207.794 20.2684 203.923 20.0567 197.89 19.7088C185.728 19.0075 165.352 17.788 154.456 17.1222C148.998 16.7887 145.918 16.5923 143.739 16.4507C143.132 16.4113 142.599 16.3762 142.109 16.3441C140.83 16.2604 139.837 16.1955 138.535 16.1157C129.159 15.5414 122.591 15.1949 111.831 14.6397C111.157 14.6049 110.572 14.5215 110.525 14.4536C110.478 14.3856 110.986 14.3587 111.661 14.3934C122.437 14.9495 129.105 15.3011 138.608 15.8833C139.968 15.9666 141.031 16.0363 142.333 16.1215C142.815 16.1531 143.331 16.1868 143.906 16.2242C146.049 16.3634 149.097 16.5578 154.526 16.8896C165.402 17.5542 185.748 18.7719 197.873 19.471C203.957 19.8218 207.806 20.0321 211.084 20.2032L212.447 20.2691L212.38 21.6552C212.276 23.6515 212.186 25.4364 212.088 27.386C212.027 28.5972 211.963 29.872 211.891 31.3006C211.635 36.3365 211.397 40.9554 211.185 45.0767L211.113 46.5773L209.586 46.5036C208.168 46.4306 206.81 46.3606 205.513 46.2937C203.45 46.1874 201.544 46.0891 199.808 46C193.744 45.6885 189.878 45.4942 188.532 45.4445C181.116 45.1709 173.283 44.7325 163.41 44.1799C160.122 43.9959 156.607 43.7991 152.807 43.5917ZM73.0663 12.3786C73.741 12.4137 74.3231 12.4972 74.3673 12.565C74.4112 12.6328 73.9006 12.6593 73.226 12.6243C69.6629 12.439 67.1012 12.3077 65.0987 12.205C61.3922 12.0151 59.6009 11.9234 56.9191 11.7688C49.9961 11.3698 43.3114 10.9866 37.2973 10.642C27.3006 10.0692 19.1532 9.60242 14.8423 9.34441C14.1663 9.30395 13.6267 9.21857 13.6373 9.15383C13.6485 9.08919 14.205 9.06961 14.8804 9.11001C19.161 9.3662 27.2471 9.82959 37.2065 10.4002C43.2276 10.7452 49.9343 11.1293 56.9008 11.5309C59.5018 11.6808 61.193 11.7676 64.817 11.9533C66.8177 12.0558 69.4081 12.1884 73.0663 12.3786Z" fill="black"/>
</svg>
