<svg width="373" height="261" viewBox="0 0 373 261" fill="none" xmlns="http://www.w3.org/2000/svg">
<path d="M378.132 41.4577C372.576 38.9883 366.164 33.8577 359.936 26.7769C352.685 18.5318 351.801 13.1157 349.07 6.33183C347.062 1.34495 344.463 -1.56513 343.761 -2.72968C343.379 -3.36439 343.523 -4.35725 343.986 -5.22014C344.449 -6.08303 345.375 -6.85472 346.932 -7.25225C355.536 -9.44838 365.158 -5.77903 369.08 -4.38297C374.232 -2.54884 376.252 9.15901 376.42 16.7987C376.476 19.3241 374.086 20.407 372.377 21.1857C370.491 22.0447 365.542 21.8147 357.769 20.8887C348.992 19.8431 341.531 12.4983 336.077 6.42302C331.475 1.29574 327.79 -1.86914 328.311 -1.81067C336.585 -0.883064 340.862 8.39667 343.039 10.4194C348.065 15.0895 353.952 19.4669 357.617 22.8927C361.147 26.1936 365.177 28.194 367.754 30.612C371.734 35.055 373.45 37.7115 374.383 38.7989C374.853 39.4233 375.317 40.195 376.729 41.9254" stroke="#FF9393" stroke-width="31" stroke-linecap="round"/>
<path d="M152.237 -11.3913C151.929 -8.61321 151.924 -5.79304 152.544 -2.60807C153.335 1.46116 158.897 7.12457 166.371 12.8117C174.541 19.0288 185.406 15.5851 192.199 13.6395C199.288 11.6093 200.872 8.72408 202.191 7.48236C203.034 6.68917 204.282 5.62329 212.095 6.22428C219.907 6.82526 234.261 9.14033 242.581 10.3329C250.901 11.5256 252.753 11.5256 252.704 10.9854C252.467 8.37862 241.791 6.55399 228.415 3.98169C221.891 2.72719 215.656 3.10711 208.154 2.6441C200.653 2.18108 192.01 1.25506 184.393 0.778012C176.777 0.300968 170.449 0.300968 163.93 0.300968" stroke="#FBD0D0" stroke-width="31" stroke-linecap="round"/>
<path d="M-3.97119 14.3317C-1.19312 14.3317 4.09646 14.3317 12.5663 14.7175C22.4827 15.1693 29.6838 17.4418 33.2616 19.3827C36.9956 21.4084 39.2013 25.2289 40.9926 28.1847C44.7678 34.4143 41.7128 43.1601 38.9137 47.83C38.108 49.1743 36.8956 50.1661 36.1075 48.9478C30.321 40.0018 30.7969 33.6754 28.0001 30.6331C23.8625 26.1321 10.7143 31.0002 1.98484 35.5157C0.0404952 36.5215 -0.987335 37.3888 4.7068 34.6224C10.4009 31.8561 22.9023 25.5282 33.278 20.8794C43.6537 16.2305 51.525 13.4524 56.12 11.5583C61.9793 9.14304 63.6802 7.47535 64.4636 6.54465C64.8643 6.06868 63.7036 4.99659 62.9974 4.51954C61.6739 4.0425 59.9574 3.73382 52.147 3.26613C45.4169 3.10712 33.0699 3.10712 20.3487 3.10712" stroke="#FBD0D0" stroke-width="31" stroke-linecap="round"/>
<path d="M-8.64819 186.442C8.94632 203.11 20.4796 214.012 25.4558 219.295C31.0783 225.263 34.0566 230.395 36.9283 233.187C45.7739 241.788 48.4007 248.158 50.1966 252.138C50.8713 253.633 52.2966 255.8 53.5476 258.139C54.9531 260.766 45.6226 257.381 40.2535 255.749C34.196 253.907 30.0251 250.211 27.6165 248.656C24.873 246.885 19.7593 243.065 13.7659 236.842C4.47173 227.193 -0.83776 219.671 -3.17621 217.475C-5.25815 215.52 -3.50828 224.311 -2.26656 227.341C-0.766144 231.003 3.79238 236.139 8.70079 241.746C14.1035 247.919 19.5535 256.1 20.0399 264.439C20.1383 266.124 19.1139 266.716 17.947 267.034C12.4533 268.532 8.82472 265.491 4.77686 263.309C-0.220413 259.874 -2.56355 258.471 -3.03358 257.229C-3.04059 256.45 -2.57758 255.37 -2.10054 254.257" stroke="#B43939" stroke-width="31" stroke-linecap="round"/>
<path d="M373.923 117.691C370.527 118.617 367.698 119.557 365.598 120.568C363.554 121.551 361 125.764 357.888 132.683C356.33 136.146 355.393 139.757 354.759 147.759C354.125 155.761 353.971 168.108 354.432 175.781C355.056 186.173 358.166 190.169 360.42 192.891C362.666 195.603 365.645 199.355 369.141 204.642C372.888 210.31 377.8 213.713 380.917 214.732C381.974 215.078 382.182 213.437 380.178 205.315C378.174 197.194 374.007 182.223 371.86 171.116C369.713 160.008 369.713 153.217 370.099 148.716C370.969 138.572 374.699 134.547 376.953 131.5C377.505 130.642 377.814 129.561 378.359 128.773C378.904 127.985 379.675 127.522 380.47 127.045" stroke="#FF9393" stroke-width="31" stroke-linecap="round"/>
<path d="M266.354 248.177C259.872 245.09 253.137 241.802 245.291 238.458C240.927 236.598 235.44 235.269 229.493 234.396C223.546 233.524 217.218 233.37 209.791 233.908C202.365 234.446 194.03 235.68 186.033 237.32C170.524 240.498 161.76 243.804 158.886 245.436C150.735 250.065 144.605 253.008 145.367 252.933C146.759 252.797 150.142 252.087 159.917 251.614C169.692 251.142 185.743 250.833 196.249 250.366C206.756 249.898 211.232 249.281 218.399 248.963C225.567 248.645 235.29 248.645 243.386 249.339C257.655 251.423 264.633 254.243 265.8 256.656C266.349 257.68 266.812 258.298 267.757 260.337" stroke="#B43939" stroke-width="31" stroke-linecap="round"/>
</svg>
