<svg width="186" height="129" viewBox="0 0 186 129" fill="none" xmlns="http://www.w3.org/2000/svg">
<path d="M101.152 9.77064C108.789 10.952 113.34 14.9009 117.742 19.8069C122.135 24.7032 126.415 30.6107 133.422 35.4237C136.956 37.8514 141.257 39.502 145.661 40.8567C147.865 41.5347 150.106 42.1416 152.295 42.734C154.487 43.3272 156.627 43.9058 158.646 44.5304C162.698 45.7836 166.196 47.2032 168.593 49.2335C170.956 51.235 172.261 53.8369 171.929 57.5501C171.59 61.3284 170.271 63.9316 168.387 65.8865C166.49 67.8557 163.991 69.1967 161.239 70.397C158.524 71.5812 155.495 72.6515 152.739 74.0357C149.957 75.4335 147.35 77.1942 145.381 79.84C141.479 85.0839 141.446 89.9197 140.772 94.3556C140.434 96.5807 139.939 98.7177 138.754 100.836C137.571 102.951 135.68 105.08 132.507 107.251C129.429 109.356 126.287 109.54 122.961 108.554C119.605 107.558 116.086 105.379 112.317 102.771C108.572 100.18 104.579 97.1656 100.353 94.5999C96.1186 92.0291 91.6012 89.8756 86.7545 88.9956C81.902 88.1145 76.7255 88.6339 71.6282 89.6635C66.5391 90.6914 61.4616 92.2443 56.8591 93.4424C52.2232 94.649 48.0792 95.4931 44.7373 95.1808C43.0768 95.0257 41.6384 94.5862 40.4436 93.7819C39.2527 92.9802 38.2721 91.795 37.5557 90.0954C36.0856 86.6072 35.8301 83.9567 36.2024 81.7397C36.5763 79.5126 37.5908 77.6704 38.76 75.7924C41.0959 72.0405 44.0265 68.2063 42.84 61.275C42.2363 57.7487 40.0356 55.0136 37.2353 52.6536C34.4453 50.3024 30.978 48.259 27.7927 46.1682C24.5781 44.058 21.6381 41.894 19.7545 39.2627C17.893 36.6623 17.054 33.5919 18.0736 29.6059C19.0887 25.6381 21.3681 23.5158 24.4798 22.4536C27.6392 21.3753 31.6763 21.3844 36.1762 21.7893C38.4191 21.9911 40.7578 22.2887 43.1422 22.5905C45.5232 22.8919 47.9485 23.197 50.349 23.4107C55.1434 23.8375 59.8872 23.9047 64.0564 22.8275C72.308 20.6956 77.8118 16.7728 83.0995 13.7564C88.3842 10.7416 93.5057 8.58793 101.152 9.77064Z" fill="#D9D9D9" stroke="black"/>
</svg>
