<svg width="228" height="173" viewBox="0 0 228 173" fill="none" xmlns="http://www.w3.org/2000/svg">
<path d="M128.853 41.6913C119.508 43.4124 114.233 42.159 106.355 46.733C101.956 49.287 101.727 56.3113 102.19 61.3016C102.343 62.9552 103.579 62.5877 104.287 62.12C104.996 61.6524 105.459 61.035 105.698 59.8681C105.936 58.7012 105.936 57.0035 105.087 55.2801C104.238 53.5566 102.541 51.8589 100.046 50.83C94.6002 48.5845 88.0376 49.9461 81.6653 52.1185C74.0417 54.7175 68.6939 60.6796 66.3531 64.5848C65.9691 65.2254 66.6501 61.1893 65.8012 59.8611C60.6666 51.8268 50.1359 76.9038 48.499 79.4036C46.9269 81.8045 46.7031 73.195 44.2992 70.9384C42.8951 69.6204 40.1975 69.1448 38.0765 69.5189C33.8684 70.2613 28.1872 80.7435 21.0222 89.2718C16.6093 94.5244 14.7458 75.2294 13.3427 72.5753C11.8882 69.8238 16.5978 81.5853 19.7875 83.9331C20.7634 84.6514 22.5001 84.2512 23.6039 83.8653C28.1627 82.2716 28.4491 73.5223 28.8443 65.9481C28.8486 65.8653 29.0758 69.2196 29.6955 70.8121C30.3152 72.4046 31.3956 72.2502 32.5695 70.1643C35.7854 64.45 36.5589 55.4555 37.0266 49.4456C37.0389 49.2868 37.9573 51.9712 39.5895 53.5286C41.0501 54.9222 45.7256 54.6323 52.1049 53.0094C65.113 49.7002 63.6849 36.0931 63.844 34.1428C63.8912 33.5639 63.0769 33.8902 62.5274 35.5155C61.0319 39.9382 61.0378 44.7921 61.1921 47.0557C61.4625 51.0205 63.3763 26.8281 61.3629 20.1822C61.044 19.1298 58.5778 20.3272 57.3173 21.0264C54.9552 22.3367 53.7184 27.1602 52.6264 30.6819C52.5002 31.0887 52.4604 28.1844 51.5367 27.988C47.9094 27.2166 43.7613 40.5221 39.3978 52.9089C37.2885 58.8963 36.5682 61.4793 35.3242 62.576C32.8389 64.767 30.3386 60.0903 27.453 59.8541C26.7449 59.7961 26.1294 59.6226 25.5798 60.2376C21.956 64.2932 23.1549 72.2128 23.7746 78.4588C24.5537 86.312 31.8539 92.7912 37.1645 95.3167C40.3883 96.8498 43.8782 95.0127 46.364 93.0765C50.3223 89.9933 51.6793 85.5093 52.3809 82.7148C52.8023 81.0363 52.6194 78.6857 52.002 77.9561C50.799 76.5343 45.3281 83.5824 39.1008 92.1388C33.9249 99.2504 32.359 106.976 31.5008 113.512C30.8105 118.769 32.0363 121.662 32.9694 122.132C36.3503 123.835 37.3352 111.873 37.0383 104.769C36.6369 95.1686 27.3641 122.723 27.7499 127.405C27.8602 128.743 28.9075 127.765 29.305 126.439C31.5231 119.041 24.89 110.311 21.5413 106.492C20.2865 105.061 19.5817 104.989 19.3409 107.919C18.6076 116.838 19.722 123.996 20.1897 124.936C20.2608 125.078 20.3487 124.024 20.2715 124.241C18.1163 130.315 19.7267 138.185 20.5732 139.429C21.2375 140.406 23.7348 140.673 30.2497 141.3C36.7647 141.927 47.5683 142.544 53.674 142.631C63.4966 142.77 70.1952 134.809 73.2726 131.177C74.3722 129.879 72.7301 137.535 73.1159 142.523C73.2539 144.307 74.2734 144.424 75.9057 143.501C80.2927 141.018 83.9406 135.417 86.0452 129.351C87.9469 123.87 86.4521 119.805 85.5986 118.248C85.1978 117.516 84.282 117.308 82.9585 117.38C71.7146 117.996 64.1573 134.748 63.9235 137.547C63.8059 138.954 63.8439 140.346 64.6156 139.209C67.6298 134.77 68.9839 128.237 69.8397 122.955C71.7436 111.204 69.4656 105.166 67.361 101.953C66.9192 101.279 65.7334 101.556 64.7162 103.176C61.9012 107.661 61.5055 112.303 62.4315 113.243C64.4835 115.326 69.1242 109.062 73.3217 103.394C83.0902 90.2021 81.9295 81.3141 81.4642 77.1867C81.2752 75.5104 80.6902 74.7571 79.2169 75.3627C77.7437 75.9684 75.2743 77.9748 71.7643 83.0983C68.2543 88.2219 63.7785 96.4018 61.0097 102.622C56.5855 112.562 56.3609 118.224 56.9782 120.249C57.2707 121.209 58.8303 121.348 60.4696 121.122C62.1088 120.895 64.1152 120.123 68.9301 116.176C73.745 112.228 81.3075 105.129 86.0522 99.9282C93.127 92.1735 95.4785 84.2933 97.658 75.3557C100.06 65.5053 99.8561 58.2335 99.0073 55.9699C98.1129 53.585 91.1618 62.0592 85.0888 71.7872C80.6501 78.8974 79.4368 85.1585 79.1234 90.1394C78.9851 92.3379 79.4274 93.8856 80.3581 94.835C81.2888 95.7844 82.8322 96.0931 84.7076 95.4804C89.0573 94.0594 94.2111 88.1844 99.9707 81.4941C104.63 76.0818 107.016 68.7051 108.653 61.8488C109.256 59.3245 109.21 58.6966 108.361 59.7676C105.494 63.3845 103.139 73.4241 101.891 84.4873C101.427 88.5919 101.877 89.6857 102.421 90.6281C102.966 91.5705 103.738 92.3422 105.602 92.7397C110.308 93.7437 116.969 91.9026 125.28 88.0254C136.642 82.7247 143.8 74.4577 146.606 69.7855C147.698 67.9673 147.561 66.9653 146.48 67.4915C145.4 68.0176 143.239 70.024 139.579 77.4626C135.92 84.9012 130.827 97.7113 127.663 106.24C123.108 118.516 121.997 126.306 121.606 132.613C121.445 135.212 121.679 136.604 122.761 136.008C126.67 133.855 129.307 124.374 131.411 113.33C132.419 108.043 132.127 103.211 130.892 99.9749C129.657 96.7385 127.188 95.1951 120.514 99.2617C113.84 103.328 103.036 113.052 97.0079 121.379C90.9794 129.706 90.0533 136.343 89.5763 141.15C89.0992 145.958 89.0992 148.736 89.8709 150.09C90.6426 151.444 92.186 151.29 94.6788 150.13C100.808 147.278 107.306 139.799 112.989 130.698C117.732 123.101 118.872 115.31 118.723 110.009C118.672 108.199 117.03 108.412 114.464 110.729C107.527 116.997 102.059 125.375 98.4788 131.906C95.09 138.089 94.8659 143.475 95.4856 146.819C95.7973 148.501 96.7226 150.008 97.8147 151.189C98.9067 152.37 100.296 153.142 106.413 153.231C112.531 153.32 123.334 152.702 132.218 151.072C141.102 149.443 147.738 146.819 153.704 143.075C159.669 139.331 164.762 134.547 169.392 128.841C178.807 117.239 182.324 108.894 182.404 108.183C182.654 105.942 179.541 118.949 176.267 130.857C174.839 136.051 175.154 139.832 175.386 141.045C176.253 145.591 177.493 125.464 176.331 117.869C176.112 116.441 175.014 115.605 174.153 115.128C173.293 114.651 172.367 114.651 171.504 115.731C169.239 118.568 169.074 123.205 169.306 127.171C169.532 131.039 171.558 134.28 174.121 136.539C176.774 138.878 181.37 138.036 184.95 138.576C190.481 139.41 193.207 147.82 196.582 150.736C197.584 151.602 198.38 152.684 198.848 154.159C199.111 154.991 199.007 156.098 198.621 156.732C198.235 157.365 197.463 157.52 196.757 157.368C193.684 156.706 191.224 153.946 183.994 151.374C180.591 150.164 175.5 150.196 169.893 149.887C163.704 149.546 159.131 139.317 154.365 132.229C152.097 128.856 148.571 122.723 145.119 117.771C138.917 108.87 134.012 102.056 131.521 95.9879C129.443 90.9249 128.853 86.917 129.47 83.7297C130.784 76.9449 135.859 75.8421 138.197 73.1926C140.658 70.4043 146.906 69.6031 157.265 69.3622C160.793 69.2802 162.676 69.7528 164.383 69.9071C167.046 70.1478 175.861 70.8425 188.317 71.5393C200.459 72.2185 203.197 77.0674 205.781 80.8838C208.133 84.3572 205.564 93.3898 204.932 100.602C204.608 104.299 203.683 110.404 202.83 114.174C202.542 115.446 201.509 117.752 199.799 120.864C198.254 123.677 195.588 124.936 192.793 125.174C191.071 125.321 188.764 124.024 183.482 119.457C178.199 114.89 170.019 106.71 165.342 101.878C158.043 94.3381 156.456 90.6679 155.046 86.8352C154.801 86.1702 155.502 85.6636 156.667 85.4251C165.576 83.6002 176.071 86.5896 179.817 87.9085C181.698 88.5705 183.872 90.1628 186.206 91.802C187.164 92.4752 188.231 91.7436 188.939 90.8877C192.208 86.9396 192.768 81.6227 194.863 77.797C196.652 74.5295 202.556 70.4075 208.243 65.8078C210.279 64.161 210.998 64.4491 211.316 65.3775C213.191 70.849 212.102 74.7337 211.793 76.1344C211.485 77.5327 209.614 78.0122 207.907 78.4799C203.087 79.8003 199.184 76.1601 196.21 74.7454C193.358 73.3891 189.83 70.5478 187.476 68.048C186.161 66.6522 186.847 63.2238 187.078 60.0318C187.349 56.2964 190.887 53.87 193.074 50.2781C195.084 46.976 197.444 44.5162 198.071 41.7778C198.707 38.9989 192.627 39.2032 187.723 37.4891C183.569 36.037 179.382 33.4413 175.021 32.417C164.735 30.0013 157.401 39.3342 155.205 42.6922C153.252 45.6786 153.959 49.6234 153.021 53.9121C152.48 56.3836 151.461 58.2102 151.534 59.2227C152.128 67.5249 170.94 50.1144 171.025 50.4933C171.764 53.8207 164.744 58.5001 158.287 63.0952C149.5 69.3486 140.12 64.9355 131.491 61.208C126.93 59.2381 122.399 56.2459 116.695 53.2713C104.505 46.9139 97.3634 43.2581 97.1295 41.0085C96.9765 39.5364 97.05 37.3699 96.587 36.1796C95.0762 32.2958 88.6409 33.7499 86.1481 31.6453C82.7255 28.7557 82.0886 26.2622 81.85 25.0977C81.7023 24.3761 83.0006 23.4701 83.9406 22.8387C85.6752 21.6737 94.9407 21.5806 108.106 21.735C117.283 21.8425 121.192 25.7805 126.573 29.9827C131.587 33.8987 136.486 39.0348 137.961 39.8931C138.732 40.3412 139.9 39.9796 140.919 39.4371C144.723 37.4129 145.213 33.6003 147.009 30.0903C148.539 27.0993 147.72 24.0875 147.483 21.5128C147.347 20.0254 146.784 18.6248 146.008 17.6123C145.635 17.1264 144.923 17.0627 144.296 17.0604C143.669 17.0581 143.052 17.2124 142.348 17.9093C138.945 21.2786 138.684 26.6972 136.579 31.6921C133.115 39.9149 129.498 46.1811 126.912 49.0902C124.118 52.2332 112.694 47.4813 101.886 42.7413C90.9006 37.9236 82.1213 33.1279 75.8917 31.491C70.2161 29.9997 66.0515 29.999 60.7549 28.762C49.0415 23.9237 45.7771 21.1316 42.8961 18.1712C41.7128 17.0627 41.0955 16.7541 41.8625 16.436" stroke="#FFD3D3" stroke-width="31" stroke-linecap="round"/>
</svg>
