<svg width="375" height="278" viewBox="0 0 375 278" fill="none" xmlns="http://www.w3.org/2000/svg">
<g clip-path="url(#clip0_36_2)">
<mask id="path-1-inside-1_36_2" fill="white">
<path d="M0 0H375V278H0V0Z"/>
</mask>
<path d="M0 0H375V278H0V0Z" fill="#FFE5E5"/>
<path d="M253.5 93L265 119.5L309.5 134L345.5 133L348.5 136L355.5 141H361.5L357.5 130.5L369.5 138.5V143.5L365 147L361.5 143.5L353 144.5L350 140L341 138.5H335L329 137.5L325.5 140L327 137.5L321.5 136L319 142.5L306 137L297.5 135L292 138L280 136.5L288 144L300 153L302.5 156L295.5 154.5L290 150L284.5 148.5L274 149L259 144L251.5 156.5L237.25 220L224.5 260L200.5 246.5L234 222.75L245 162L241.5 144L224.5 125.5L203.5 122.5H175.5L151 128L160.5 118L182.5 120.5H213L236 108.5L245 90.5L251.25 64.5L247 17L259 53L253.5 93Z" fill="#FF8F8F"/>
<path d="M145.5 176.5L149.5 255.5L161.5 250L151 228L173.5 244.5L179.625 251.375L178 238.5L197.719 235V262.156L203 254L215.812 272.938L237.5 261.5L256.5 271.5L302 276.5L252 294.5L212 281.5L175.25 259.25L190.5 274L166.5 275L180.905 289.5H94.3025L83 275L76 274.5L72 280L69 274L55.5 281L62.25 270.25L39.5 276.5L34.5 272L32 273.5L27 274L21 273.5L28.5 277H21L17 274.5L13.25 275.75L8 277L5.5 274.5L1.5 270.5V263.5H6.5L10.5 271.5V263.5L23.5 267.875L16 263.5L19 261.5L27 264.5L30.5 260.5L38 265.5L49 259.5L45 269.25L50.25 267.875V258.5L55.5 266.5L62 263.25L53.5 258.5L60 258L64.25 259L68.375 257L72.5 255L68.5 260L83 255.5L89.5 256.75L118 238L133 215.5L120.5 247L112 265.5L115.625 249.375L110.75 251.75L103.5 265.5L114.5 269.5L125.604 255.5L145.5 176.5Z" fill="#EDCDCD"/>
<path d="M158 4V16L164 17L169.5 11V4L175.5 11L187 6L196.5 2H216L213.5 -2.5L215 -8L352.5 -2.5L351.5 1H376.5L370 2.5L378 15L371.5 11V13.5L372.5 16L374 19.5L372.5 67.5L371.5 35L369.25 16L367 21L368.5 7.5L365.5 6L363 20L365 31L364.5 23.5L368.5 21.5L366.5 30L370 29.5L369 36L370 60L364 37L361.5 43L360 36.5L359.5 28.5L355 14L356.5 11L353.5 9L358 6.5L354 7L342.5 6.5L349.5 8.5L342.5 13.5L347 13L351.5 11V15L359 35L326 12.5L336 7.5L325 8.5V15L328 22.5L322.5 19L320.5 15L319.5 10L322 7.5L329 2.5L320.5 1L316 4.5V11L320.5 19.5L311 8.5L305.5 11L313 17L299 18L280.5 22.5L234 12.5L232 30L215 15.5H206.5L212.5 13.5L208.5 7.5L202 13.5L204.5 5L198 6L194.5 15.5L185.5 13.5L177 15L176.5 23L168.5 16L160.5 26L153.5 21L151 34.5L143.5 66.5L129 46L103 44L111.5 34.5L147.5 13.5L158 4Z" fill="#FF5D5D"/>
</g>
<path d="M375 278V277H0V278V279H375V278Z" fill="black" mask="url(#path-1-inside-1_36_2)"/>
<defs>
<clipPath id="clip0_36_2">
<path d="M0 0H375V278H0V0Z" fill="white"/>
</clipPath>
</defs>
</svg>
